<?xml version="1.0" encoding="UTF-8"?>
<svg width="512pt" height="512pt" viewBox="-51 0 512 512" xmlns="http://www.w3.org/2000/svg">
<path d="m205.12 0c-113.1 0-205.12 92.016-205.12 205.12v5.668c0 57.199 32.793 123.86 97.473 198.11 46.887 53.832 93.121 91.367 95.066 92.941l12.578 10.16 12.574-10.16c1.9453-1.5742 48.176-39.109 95.066-92.941 64.68-74.258 97.473-140.91 97.473-198.11v-5.668c0-113.1-92.016-205.12-205.11-205.12zm165.09 210.79c0 96.664-124.55 213.68-165.09 249.2-40.555-35.535-165.09-152.54-165.09-249.2v-5.668c0-91.035 74.059-165.09 165.09-165.09s165.09 74.059 165.09 165.09zm-190.3 32.535 41.09 102.4 85.176-228.62-228.77 84.973zm58.234-58.254-18.527 49.73-8.9219-22.23-22.359-9z"/>
</svg>