<?xml version="1.0" encoding="UTF-8"?>
<!DOCTYPE svg  PUBLIC '-//W3C//DTD SVG 20010904//EN'  'http://www.w3.org/TR/2001/REC-SVG-20010904/DTD/svg10.dtd'>
<svg width="1280pt" height="1280pt" version="1.0" viewBox="0 0 1280.000000 1280.000000" xmlns="http://www.w3.org/2000/svg">
<metadata>Created by potrace 1.15, written by Peter Selinger 2001-2017</metadata>
<g transform="translate(0 1280) scale(.1 -.1)">
<path d="m4435 12785c-1692-135-3170-1126-3924-2632-378-757-557-1629-501-2441 60-859 323-1646 785-2347 1058-1604 2976-2419 4870-2070 287 53 603 144 880 252 165 64 537 245 684 333l104 62 1971-1971 1971-1971 763 762 762 763-1971 1971-1971 1971 62 104c88 147 269 519 333 684 488 1251 435 2639-147 3840-463 956-1216 1720-2163 2194-779 389-1659 563-2508 496zm760-1610c1083-146 1987-792 2465-1760 158-319 254-637 307-1015 24-176 24-614 0-790-110-782-450-1438-1017-1962-482-445-1074-719-1760-815-176-24-614-24-790 0-378 53-696 149-1015 307-1068 527-1748 1586-1782 2775-26 921 340 1796 1013 2426 521 487 1176 778 1912 849 131 13 529 4 667-15z"/>
</g>
</svg>
