<?xml version="1.0" encoding="UTF-8"?>
<svg enable-background="new 0 0 512.003 512.003" version="1.1" viewBox="0 0 512.003 512.003" xml:space="preserve" xmlns="http://www.w3.org/2000/svg">
		<path d="m440.45 87.831h-325.82l52.495-52.495c8.084-8.084 8.084-21.19 0-29.274-8.083-8.084-21.19-8.084-29.274 0l-117.72 117.73c-8.084 8.084-8.084 21.19 0 29.274l117.72 117.72c4.041 4.042 9.338 6.062 14.636 6.062s10.596-2.02 14.636-6.064c8.084-8.084 8.084-21.19 0-29.274l-52.495-52.495h325.82c27.896 0 50.592-22.695 50.592-50.592 1e-3 -27.895-22.694-50.592-50.591-50.592z"/>
		<path d="m491.88 358.94l-117.72-117.72c-8.083-8.084-21.19-8.084-29.274 0s-8.084 21.19 0 29.274l52.495 52.495h-325.82c-27.896 0-50.592 22.695-50.592 50.592s22.695 50.593 50.592 50.593h325.82l-52.495 52.495c-8.084 8.084-8.084 21.19 0 29.274 4.042 4.042 9.34 6.064 14.636 6.064s10.596-2.02 14.636-6.064l117.72-117.72c8.085-8.085 8.085-21.191 1e-3 -29.275z"/>
</svg>
